<svg width="91" height="77" viewBox="0 0 91 77" fill="none" xmlns="http://www.w3.org/2000/svg">
  <path
    d="M88.8173 8.06412C88.0249 7.73473 69.2605 0 56.2665 0C50.5894 0 47.2142 1.49642 45.2325 3.48771C43.2509 1.49642 39.8757 0 34.1988 0C21.2046 0 2.4402 7.73473 1.64774 8.06412C0.65022 8.47853 0 9.45279 0 10.5332V74.3264C0 75.2191 0.445422 76.0527 1.18761 76.5492C1.63384 76.8473 2.15198 77 2.67387 77C3.01957 77 3.36687 76.9329 3.69545 76.7968C3.93287 76.6987 27.5734 66.9764 39.0375 66.9764C41.7012 66.9764 42.7899 67.5389 43.0134 67.8718C43.6695 68.8482 44.8863 69.2816 46.0122 68.938C46.6388 68.7471 47.1543 68.3402 47.4888 67.8143C47.4899 67.817 47.4912 67.8191 47.4925 67.8215C47.7864 67.4855 48.893 66.9764 51.4281 66.9764C62.8919 66.9764 86.5325 76.6987 86.7699 76.7968C87.0985 76.9329 87.4458 77 87.7915 77C88.3131 77 88.8312 76.8473 89.2777 76.5492C90.0199 76.0527 90.4653 75.2191 90.4653 74.3264V10.5332C90.4651 9.45279 89.8151 8.47853 88.8173 8.06412ZM85.1179 70.3914C77.7419 67.5555 61.1624 61.6289 51.4278 61.6289C50.1145 61.6289 48.9422 61.734 47.9064 61.9455V50.3054C46.0298 50.083 44.2259 49.5413 42.5592 48.7053V61.9455C41.5234 61.734 40.3511 61.6289 39.0378 61.6289C29.3029 61.6289 12.7234 67.5555 5.34747 70.3914V12.3494C10.1439 10.4974 24.3699 5.3472 34.1991 5.3472C42.5592 5.3472 42.5592 8.98116 42.5592 10.5332V19.5467C44.2262 18.7104 46.0295 18.1682 47.9064 17.9463V10.5332C47.9064 8.98116 47.9064 5.3472 56.2668 5.3472C66.096 5.3472 80.3217 10.4976 85.1181 12.3494L85.1179 70.3914Z"
    fill="#006D86" />
  <path
    d="M12.5315 24.7307C12.8441 24.7307 13.1617 24.6574 13.4582 24.5024C17.1702 22.5643 27.9261 18.1793 33.0536 21.1221C34.0137 21.6737 35.2395 21.3419 35.7908 20.3813C36.3421 19.4209 36.0106 18.1954 35.05 17.6441C31.5588 15.6399 26.496 15.6185 20.0032 17.581C15.3963 18.9734 11.7522 20.869 11.5993 20.9489C10.6183 21.4622 10.2397 22.6731 10.7525 23.6543C11.1105 24.3388 11.8086 24.7307 12.5315 24.7307Z"
    fill="#006D86" />
  <path
    d="M12.5316 35.4253C12.8442 35.4253 13.1618 35.352 13.4583 35.197C17.1703 33.2589 27.9262 28.8739 33.0537 31.8167C33.2598 31.9352 33.4785 32.0106 33.6996 32.0499C33.8681 30.7224 34.1974 29.4118 34.6918 28.151C31.2158 26.3407 26.2801 26.3781 20.0036 28.2753C15.3967 29.6677 11.7526 31.5633 11.5996 31.6432C10.6187 32.1565 10.2401 33.3674 10.7529 34.3486C11.1106 35.0333 11.8087 35.4253 12.5316 35.4253Z"
    fill="#006D86" />
  <path
    d="M12.5316 46.1196C12.8442 46.1196 13.1618 46.0464 13.4583 45.8913C17.1703 43.9532 27.9262 39.5674 33.0537 42.5113C33.5707 42.8081 34.1643 42.8469 34.6886 42.6715L35.5078 41.8523C34.9471 40.8104 34.5108 39.719 34.1932 38.6009C30.7496 37.0422 25.9852 37.162 20.0036 38.9696C15.3967 40.362 11.7526 42.2576 11.5996 42.3378C10.6187 42.8511 10.2401 44.0617 10.7529 45.043C11.1106 45.7279 11.8087 46.1196 12.5316 46.1196Z"
    fill="#006D86" />
  <path
    d="M20.0032 49.6644C15.3963 51.0568 11.7522 52.9524 11.5993 53.0326C10.6183 53.5459 10.2397 54.7565 10.7525 55.7377C11.1105 56.4227 11.8086 56.8141 12.5315 56.8141C12.8441 56.8141 13.1617 56.7409 13.4582 56.5858C15.7233 55.4033 20.6101 53.312 25.2413 52.5278C25.4662 52.0423 25.7736 51.5859 26.1739 51.1854L29.1367 48.2228C26.5107 48.1426 23.462 48.6193 20.0032 49.6644Z"
    fill="#006D86" />
  <path
    d="M54.6023 18.5258C56.1038 18.9809 57.5299 19.6538 58.8434 20.5262C64.3275 18.914 73.6124 22.7298 77.0073 24.5024C77.3038 24.6575 77.6214 24.7307 77.9345 24.7307C78.6569 24.7307 79.3547 24.3393 79.7127 23.6549C80.2261 22.6737 79.8472 21.462 78.8657 20.9484C78.7128 20.8685 75.0687 18.9729 70.4618 17.5805C63.9692 15.6183 58.9068 15.6394 55.415 17.6438C55.0466 17.8564 54.7712 18.1681 54.6023 18.5258Z"
    fill="#006D86" />
  <path
    d="M78.8658 31.6434C78.7128 31.5635 75.0687 29.6679 70.4618 28.2755C68.3187 27.6279 66.3349 27.2007 64.5083 26.9855C65.1668 28.3346 65.6331 29.7708 65.8956 31.2616C70.3204 32.1233 74.8514 34.0716 77.0068 35.1972C77.3033 35.3522 77.6209 35.4255 77.934 35.4255C78.6564 35.4255 79.3542 35.0341 79.7122 34.3499C80.2261 33.3687 79.847 32.1568 78.8658 31.6434Z"
    fill="#006D86" />
  <path
    d="M78.8661 42.3381C78.7131 42.2579 75.069 40.3623 70.4621 38.9699C68.7847 38.463 67.2046 38.0911 65.7205 37.8491C65.4085 39.1894 64.9299 40.4794 64.292 41.693C69.1844 42.3309 74.5899 44.6294 77.0074 45.8916C77.3039 46.0466 77.6215 46.1202 77.9346 46.1202C78.657 46.1202 79.3548 45.7285 79.7128 45.044C80.2264 44.0631 79.8473 42.8512 78.8661 42.3381Z"
    fill="#006D86" />
  <path
    d="M78.8657 53.0325C78.7127 52.9523 75.0686 51.0567 70.4617 49.6643C63.9692 47.7019 58.9067 47.7233 55.415 49.7277C54.4546 50.2792 54.1228 51.5045 54.6741 52.4652C55.226 53.4258 56.4515 53.7565 57.4114 53.206C62.5383 50.2626 73.2947 54.6479 77.0067 56.586C77.3032 56.7411 77.6208 56.8146 77.9339 56.8146C78.6563 56.8146 79.3541 56.4229 79.7121 55.7385C80.226 54.7575 79.8469 53.5456 78.8657 53.0325Z"
    fill="#006D86" />
  <path
    d="M63.2325 34.124C63.2325 30.4852 61.8153 27.0638 59.2422 24.4907C56.6691 21.9176 53.2482 20.5004 49.6092 20.5004C45.9702 20.5004 42.549 21.9176 39.9759 24.4907C37.4029 27.0638 35.9856 30.4852 35.9856 34.124C35.9856 37.0855 36.9246 39.9024 38.6611 42.2362L27.8204 53.0763C27.0373 53.8594 27.0373 55.1291 27.8204 55.912C28.2118 56.3036 28.7252 56.4993 29.2382 56.4993C29.7513 56.4993 30.2646 56.3036 30.656 55.9122L41.4967 45.0718C43.8299 46.8083 46.6474 47.7473 49.6089 47.7473C53.2477 47.7473 56.6688 46.3303 59.2417 43.7572C61.8153 41.1839 63.2325 37.7627 63.2325 34.124ZM56.4063 40.9216C54.5909 42.7373 52.1769 43.7369 49.6095 43.7369C47.0417 43.7369 44.6277 42.7372 42.8118 40.9213C40.9962 39.1057 39.9963 36.6917 39.9963 34.124C39.9963 31.556 40.9962 29.1423 42.8118 27.3263C44.6277 25.5107 47.0417 24.5108 49.6095 24.5108C52.1772 24.5108 54.5909 25.5107 56.4066 27.3266C58.2222 29.1423 59.2224 31.5562 59.2224 34.124C59.2224 36.6917 58.2222 39.1057 56.4063 40.9216Z"
    fill="#006D86" />
</svg>
  