<svg width="240" height="55" viewBox="0 0 240 55" fill="none" xmlns="http://www.w3.org/2000/svg">
  <path d="M76.0391 28.2715H68.0039L67.9609 23.8457H74.707C75.8958 23.8457 76.8698 23.6953 77.6289 23.3945C78.388 23.0794 78.9538 22.6283 79.3262 22.041C79.7129 21.4395 79.9062 20.709 79.9062 19.8496C79.9062 18.8757 79.7201 18.0879 79.3477 17.4863C78.9896 16.8848 78.4238 16.4479 77.6504 16.1758C76.8913 15.9036 75.9102 15.7676 74.707 15.7676H70.2383V42H63.793V10.7188H74.707C76.526 10.7188 78.1517 10.8906 79.584 11.2344C81.0306 11.5781 82.2552 12.1009 83.2578 12.8027C84.2604 13.5046 85.0267 14.3926 85.5566 15.4668C86.0866 16.5267 86.3516 17.7871 86.3516 19.248C86.3516 20.5371 86.0579 21.7259 85.4707 22.8145C84.8978 23.903 83.9883 24.791 82.7422 25.4785C81.5104 26.166 79.8991 26.5456 77.9082 26.6172L76.0391 28.2715ZM75.7598 42H66.2422L68.7559 36.9727H75.7598C76.8913 36.9727 77.8151 36.7936 78.5312 36.4355C79.2474 36.0632 79.7773 35.5618 80.1211 34.9316C80.4648 34.3014 80.6367 33.5781 80.6367 32.7617C80.6367 31.8451 80.4792 31.0501 80.1641 30.377C79.8633 29.7038 79.3763 29.1882 78.7031 28.8301C78.0299 28.4577 77.1419 28.2715 76.0391 28.2715H69.8301L69.873 23.8457H77.6074L79.0898 25.5859C80.9948 25.5573 82.5273 25.8939 83.6875 26.5957C84.862 27.2832 85.7142 28.1784 86.2441 29.2812C86.7884 30.3841 87.0605 31.5658 87.0605 32.8262C87.0605 34.8314 86.6237 36.5215 85.75 37.8965C84.8763 39.2572 83.5944 40.2812 81.9043 40.9688C80.2285 41.6562 78.1803 42 75.7598 42ZM90.5195 30.6133V30.1621C90.5195 28.4577 90.763 26.8893 91.25 25.457C91.737 24.0104 92.446 22.7572 93.377 21.6973C94.3079 20.6374 95.4538 19.8138 96.8145 19.2266C98.1751 18.625 99.7363 18.3242 101.498 18.3242C103.26 18.3242 104.828 18.625 106.203 19.2266C107.578 19.8138 108.731 20.6374 109.662 21.6973C110.607 22.7572 111.324 24.0104 111.811 25.457C112.298 26.8893 112.541 28.4577 112.541 30.1621V30.6133C112.541 32.3034 112.298 33.8717 111.811 35.3184C111.324 36.7507 110.607 38.0039 109.662 39.0781C108.731 40.138 107.585 40.9616 106.225 41.5488C104.864 42.1361 103.303 42.4297 101.541 42.4297C99.7793 42.4297 98.2109 42.1361 96.8359 41.5488C95.4753 40.9616 94.3223 40.138 93.377 39.0781C92.446 38.0039 91.737 36.7507 91.25 35.3184C90.763 33.8717 90.5195 32.3034 90.5195 30.6133ZM96.707 30.1621V30.6133C96.707 31.5872 96.793 32.4967 96.9648 33.3418C97.1367 34.1868 97.4089 34.9316 97.7812 35.5762C98.168 36.2064 98.6693 36.7005 99.2852 37.0586C99.901 37.4167 100.653 37.5957 101.541 37.5957C102.4 37.5957 103.138 37.4167 103.754 37.0586C104.37 36.7005 104.864 36.2064 105.236 35.5762C105.609 34.9316 105.881 34.1868 106.053 33.3418C106.239 32.4967 106.332 31.5872 106.332 30.6133V30.1621C106.332 29.2168 106.239 28.3288 106.053 27.498C105.881 26.653 105.602 25.9082 105.215 25.2637C104.842 24.6048 104.348 24.0892 103.732 23.7168C103.117 23.3444 102.372 23.1582 101.498 23.1582C100.624 23.1582 99.8796 23.3444 99.2637 23.7168C98.6621 24.0892 98.168 24.6048 97.7812 25.2637C97.4089 25.9082 97.1367 26.653 96.9648 27.498C96.793 28.3288 96.707 29.2168 96.707 30.1621ZM115.355 30.6133V30.1621C115.355 28.4577 115.599 26.8893 116.086 25.457C116.573 24.0104 117.282 22.7572 118.213 21.6973C119.144 20.6374 120.29 19.8138 121.65 19.2266C123.011 18.625 124.572 18.3242 126.334 18.3242C128.096 18.3242 129.664 18.625 131.039 19.2266C132.414 19.8138 133.567 20.6374 134.498 21.6973C135.443 22.7572 136.16 24.0104 136.646 25.457C137.133 26.8893 137.377 28.4577 137.377 30.1621V30.6133C137.377 32.3034 137.133 33.8717 136.646 35.3184C136.16 36.7507 135.443 38.0039 134.498 39.0781C133.567 40.138 132.421 40.9616 131.061 41.5488C129.7 42.1361 128.139 42.4297 126.377 42.4297C124.615 42.4297 123.047 42.1361 121.672 41.5488C120.311 40.9616 119.158 40.138 118.213 39.0781C117.282 38.0039 116.573 36.7507 116.086 35.3184C115.599 33.8717 115.355 32.3034 115.355 30.6133ZM121.543 30.1621V30.6133C121.543 31.5872 121.629 32.4967 121.801 33.3418C121.973 34.1868 122.245 34.9316 122.617 35.5762C123.004 36.2064 123.505 36.7005 124.121 37.0586C124.737 37.4167 125.489 37.5957 126.377 37.5957C127.236 37.5957 127.974 37.4167 128.59 37.0586C129.206 36.7005 129.7 36.2064 130.072 35.5762C130.445 34.9316 130.717 34.1868 130.889 33.3418C131.075 32.4967 131.168 31.5872 131.168 30.6133V30.1621C131.168 29.2168 131.075 28.3288 130.889 27.498C130.717 26.653 130.438 25.9082 130.051 25.2637C129.678 24.6048 129.184 24.0892 128.568 23.7168C127.952 23.3444 127.208 23.1582 126.334 23.1582C125.46 23.1582 124.715 23.3444 124.1 23.7168C123.498 24.0892 123.004 24.6048 122.617 25.2637C122.245 25.9082 121.973 26.653 121.801 27.498C121.629 28.3288 121.543 29.2168 121.543 30.1621ZM147.367 8.97852V42H141.18V8.97852H147.367ZM162.02 18.7539L151.922 30.2695L146.508 35.748L144.252 31.2793L148.549 25.8223L154.586 18.7539H162.02ZM155.596 42L148.721 31.2578L152.996 27.5195L162.729 42H155.596ZM177.252 35.5762C177.252 35.1322 177.123 34.7311 176.865 34.373C176.607 34.015 176.128 33.6855 175.426 33.3848C174.738 33.0697 173.743 32.7832 172.439 32.5254C171.265 32.2676 170.169 31.9453 169.152 31.5586C168.15 31.1576 167.276 30.6777 166.531 30.1191C165.801 29.5605 165.228 28.9017 164.812 28.1426C164.397 27.3691 164.189 26.4883 164.189 25.5C164.189 24.526 164.397 23.6094 164.812 22.75C165.242 21.8906 165.851 21.1315 166.639 20.4727C167.441 19.7995 168.415 19.2767 169.561 18.9043C170.721 18.5176 172.024 18.3242 173.471 18.3242C175.49 18.3242 177.223 18.6465 178.67 19.291C180.131 19.9355 181.248 20.8236 182.021 21.9551C182.809 23.0723 183.203 24.347 183.203 25.7793H177.016C177.016 25.1777 176.887 24.6406 176.629 24.168C176.385 23.681 175.999 23.3014 175.469 23.0293C174.953 22.7428 174.28 22.5996 173.449 22.5996C172.762 22.5996 172.167 22.7214 171.666 22.9648C171.165 23.194 170.778 23.5091 170.506 23.9102C170.248 24.2969 170.119 24.7266 170.119 25.1992C170.119 25.5573 170.191 25.8796 170.334 26.166C170.492 26.4382 170.742 26.6888 171.086 26.918C171.43 27.1471 171.874 27.362 172.418 27.5625C172.977 27.7487 173.664 27.9206 174.48 28.0781C176.156 28.4219 177.653 28.873 178.971 29.4316C180.288 29.9759 181.334 30.7207 182.107 31.666C182.881 32.597 183.268 33.8216 183.268 35.3398C183.268 36.3711 183.038 37.3164 182.58 38.1758C182.122 39.0352 181.463 39.7871 180.604 40.4316C179.744 41.0618 178.713 41.556 177.51 41.9141C176.321 42.2578 174.982 42.4297 173.492 42.4297C171.329 42.4297 169.496 42.043 167.992 41.2695C166.503 40.4961 165.371 39.515 164.598 38.3262C163.839 37.123 163.459 35.8913 163.459 34.6309H169.324C169.353 35.4759 169.568 36.1562 169.969 36.6719C170.384 37.1875 170.907 37.5599 171.537 37.7891C172.182 38.0182 172.876 38.1328 173.621 38.1328C174.423 38.1328 175.089 38.0254 175.619 37.8105C176.149 37.5814 176.55 37.2806 176.822 36.9082C177.109 36.5215 177.252 36.0775 177.252 35.5762ZM208.941 30.3125V35.168H186.404L186.104 31.4082L199.145 10.7188H204.064L198.736 19.6348L192.248 30.3125H208.941ZM205.396 10.7188V42H199.209V10.7188H205.396ZM230.211 10.7188H236.635V31.3867C236.635 33.793 236.119 35.8197 235.088 37.4668C234.071 39.1139 232.66 40.3529 230.855 41.1836C229.065 42.0143 227.003 42.4297 224.668 42.4297C222.333 42.4297 220.257 42.0143 218.438 41.1836C216.633 40.3529 215.215 39.1139 214.184 37.4668C213.167 35.8197 212.658 33.793 212.658 31.3867V10.7188H219.104V31.3867C219.104 32.7904 219.326 33.9362 219.77 34.8242C220.214 35.7122 220.851 36.3639 221.682 36.7793C222.527 37.1947 223.522 37.4023 224.668 37.4023C225.842 37.4023 226.838 37.1947 227.654 36.7793C228.485 36.3639 229.115 35.7122 229.545 34.8242C229.989 33.9362 230.211 32.7904 230.211 31.3867V10.7188Z" fill="#3F8EA8"/>
  <rect x="37" width="15" height="55" fill="#3F8EA8"/>
  <rect opacity="0.8" x="19" width="14" height="55" fill="#3F8EA8"/>
  <rect opacity="0.4" width="15" height="55" fill="#3F8EA8"/>
  </svg>
  