<svg width="239" height="55" viewBox="0 0 239 55" fill="none" xmlns="http://www.w3.org/2000/svg">
  <path d="M76.0391 28.2715H68.0039L67.9609 23.8457H74.707C75.8958 23.8457 76.8698 23.6953 77.6289 23.3945C78.388 23.0794 78.9538 22.6283 79.3262 22.041C79.7129 21.4395 79.9062 20.709 79.9062 19.8496C79.9062 18.8757 79.7201 18.0879 79.3477 17.4863C78.9896 16.8848 78.4238 16.4479 77.6504 16.1758C76.8913 15.9036 75.9102 15.7676 74.707 15.7676H70.2383V42H63.793V10.7188H74.707C76.526 10.7188 78.1517 10.8906 79.584 11.2344C81.0306 11.5781 82.2552 12.1009 83.2578 12.8027C84.2604 13.5046 85.0267 14.3926 85.5566 15.4668C86.0866 16.5267 86.3516 17.7871 86.3516 19.248C86.3516 20.5371 86.0579 21.7259 85.4707 22.8145C84.8978 23.903 83.9883 24.791 82.7422 25.4785C81.5104 26.166 79.8991 26.5456 77.9082 26.6172L76.0391 28.2715ZM75.7598 42H66.2422L68.7559 36.9727H75.7598C76.8913 36.9727 77.8151 36.7936 78.5312 36.4355C79.2474 36.0632 79.7773 35.5618 80.1211 34.9316C80.4648 34.3014 80.6367 33.5781 80.6367 32.7617C80.6367 31.8451 80.4792 31.0501 80.1641 30.377C79.8633 29.7038 79.3763 29.1882 78.7031 28.8301C78.0299 28.4577 77.1419 28.2715 76.0391 28.2715H69.8301L69.873 23.8457H77.6074L79.0898 25.5859C80.9948 25.5573 82.5273 25.8939 83.6875 26.5957C84.862 27.2832 85.7142 28.1784 86.2441 29.2812C86.7884 30.3841 87.0605 31.5658 87.0605 32.8262C87.0605 34.8314 86.6237 36.5215 85.75 37.8965C84.8763 39.2572 83.5944 40.2812 81.9043 40.9688C80.2285 41.6562 78.1803 42 75.7598 42ZM98.0391 18.7539V42H91.8301V18.7539H98.0391ZM91.4434 12.6953C91.4434 11.793 91.7585 11.0482 92.3887 10.4609C93.0189 9.8737 93.8639 9.58008 94.9238 9.58008C95.9694 9.58008 96.8073 9.8737 97.4375 10.4609C98.082 11.0482 98.4043 11.793 98.4043 12.6953C98.4043 13.5977 98.082 14.3424 97.4375 14.9297C96.8073 15.5169 95.9694 15.8105 94.9238 15.8105C93.8639 15.8105 93.0189 15.5169 92.3887 14.9297C91.7585 14.3424 91.4434 13.5977 91.4434 12.6953ZM103.152 9H109.34V36.6719L108.717 42H103.152V9ZM124.057 30.1406V30.5918C124.057 32.3249 123.87 33.9147 123.498 35.3613C123.14 36.8079 122.581 38.0612 121.822 39.1211C121.063 40.1667 120.118 40.9831 118.986 41.5703C117.869 42.1432 116.551 42.4297 115.033 42.4297C113.615 42.4297 112.383 42.1432 111.338 41.5703C110.307 40.9974 109.44 40.1882 108.738 39.1426C108.036 38.097 107.471 36.8724 107.041 35.4688C106.611 34.0651 106.289 32.5326 106.074 30.8711V29.8828C106.289 28.2214 106.611 26.6888 107.041 25.2852C107.471 23.8815 108.036 22.6569 108.738 21.6113C109.44 20.5658 110.307 19.7565 111.338 19.1836C112.369 18.6107 113.587 18.3242 114.99 18.3242C116.523 18.3242 117.855 18.6178 118.986 19.2051C120.132 19.778 121.077 20.5944 121.822 21.6543C122.581 22.6999 123.14 23.946 123.498 25.3926C123.87 26.8249 124.057 28.4076 124.057 30.1406ZM117.869 30.5918V30.1406C117.869 29.1953 117.798 28.3073 117.654 27.4766C117.525 26.6315 117.296 25.8939 116.967 25.2637C116.637 24.6191 116.186 24.1107 115.613 23.7383C115.055 23.3659 114.331 23.1797 113.443 23.1797C112.598 23.1797 111.882 23.3229 111.295 23.6094C110.708 23.8958 110.221 24.2969 109.834 24.8125C109.462 25.3281 109.182 25.944 108.996 26.6602C108.81 27.362 108.695 28.1354 108.652 28.9805V31.7949C108.695 32.9264 108.882 33.929 109.211 34.8027C109.555 35.6621 110.07 36.3424 110.758 36.8438C111.46 37.3307 112.369 37.5742 113.486 37.5742C114.36 37.5742 115.083 37.4023 115.656 37.0586C116.229 36.7148 116.673 36.2279 116.988 35.5977C117.318 34.9674 117.547 34.2298 117.676 33.3848C117.805 32.5254 117.869 31.5944 117.869 30.5918ZM134.434 9V42H128.225V9H134.434ZM146.078 18.7539V42H139.869V18.7539H146.078ZM139.482 12.6953C139.482 11.793 139.798 11.0482 140.428 10.4609C141.058 9.8737 141.903 9.58008 142.963 9.58008C144.008 9.58008 144.846 9.8737 145.477 10.4609C146.121 11.0482 146.443 11.793 146.443 12.6953C146.443 13.5977 146.121 14.3424 145.477 14.9297C144.846 15.5169 144.008 15.8105 142.963 15.8105C141.903 15.8105 141.058 15.5169 140.428 14.9297C139.798 14.3424 139.482 13.5977 139.482 12.6953ZM150.203 30.6133V30.1621C150.203 28.4577 150.447 26.8893 150.934 25.457C151.421 24.0104 152.13 22.7572 153.061 21.6973C153.992 20.6374 155.137 19.8138 156.498 19.2266C157.859 18.625 159.42 18.3242 161.182 18.3242C162.943 18.3242 164.512 18.625 165.887 19.2266C167.262 19.8138 168.415 20.6374 169.346 21.6973C170.291 22.7572 171.007 24.0104 171.494 25.457C171.981 26.8893 172.225 28.4577 172.225 30.1621V30.6133C172.225 32.3034 171.981 33.8717 171.494 35.3184C171.007 36.7507 170.291 38.0039 169.346 39.0781C168.415 40.138 167.269 40.9616 165.908 41.5488C164.548 42.1361 162.986 42.4297 161.225 42.4297C159.463 42.4297 157.895 42.1361 156.52 41.5488C155.159 40.9616 154.006 40.138 153.061 39.0781C152.13 38.0039 151.421 36.7507 150.934 35.3184C150.447 33.8717 150.203 32.3034 150.203 30.6133ZM156.391 30.1621V30.6133C156.391 31.5872 156.477 32.4967 156.648 33.3418C156.82 34.1868 157.092 34.9316 157.465 35.5762C157.852 36.2064 158.353 36.7005 158.969 37.0586C159.585 37.4167 160.337 37.5957 161.225 37.5957C162.084 37.5957 162.822 37.4167 163.438 37.0586C164.053 36.7005 164.548 36.2064 164.92 35.5762C165.292 34.9316 165.564 34.1868 165.736 33.3418C165.923 32.4967 166.016 31.5872 166.016 30.6133V30.1621C166.016 29.2168 165.923 28.3288 165.736 27.498C165.564 26.653 165.285 25.9082 164.898 25.2637C164.526 24.6048 164.032 24.0892 163.416 23.7168C162.8 23.3444 162.055 23.1582 161.182 23.1582C160.308 23.1582 159.563 23.3444 158.947 23.7168C158.346 24.0892 157.852 24.6048 157.465 25.2637C157.092 25.9082 156.82 26.653 156.648 27.498C156.477 28.3288 156.391 29.2168 156.391 30.1621ZM176.027 9H182.215V36.6719L181.592 42H176.027V9ZM196.932 30.1406V30.5918C196.932 32.3249 196.745 33.9147 196.373 35.3613C196.015 36.8079 195.456 38.0612 194.697 39.1211C193.938 40.1667 192.993 40.9831 191.861 41.5703C190.744 42.1432 189.426 42.4297 187.908 42.4297C186.49 42.4297 185.258 42.1432 184.213 41.5703C183.182 40.9974 182.315 40.1882 181.613 39.1426C180.911 38.097 180.346 36.8724 179.916 35.4688C179.486 34.0651 179.164 32.5326 178.949 30.8711V29.8828C179.164 28.2214 179.486 26.6888 179.916 25.2852C180.346 23.8815 180.911 22.6569 181.613 21.6113C182.315 20.5658 183.182 19.7565 184.213 19.1836C185.244 18.6107 186.462 18.3242 187.865 18.3242C189.398 18.3242 190.73 18.6178 191.861 19.2051C193.007 19.778 193.952 20.5944 194.697 21.6543C195.456 22.6999 196.015 23.946 196.373 25.3926C196.745 26.8249 196.932 28.4076 196.932 30.1406ZM190.744 30.5918V30.1406C190.744 29.1953 190.673 28.3073 190.529 27.4766C190.4 26.6315 190.171 25.8939 189.842 25.2637C189.512 24.6191 189.061 24.1107 188.488 23.7383C187.93 23.3659 187.206 23.1797 186.318 23.1797C185.473 23.1797 184.757 23.3229 184.17 23.6094C183.583 23.8958 183.096 24.2969 182.709 24.8125C182.337 25.3281 182.057 25.944 181.871 26.6602C181.685 27.362 181.57 28.1354 181.527 28.9805V31.7949C181.57 32.9264 181.757 33.929 182.086 34.8027C182.43 35.6621 182.945 36.3424 183.633 36.8438C184.335 37.3307 185.244 37.5742 186.361 37.5742C187.235 37.5742 187.958 37.4023 188.531 37.0586C189.104 36.7148 189.548 36.2279 189.863 35.5977C190.193 34.9674 190.422 34.2298 190.551 33.3848C190.68 32.5254 190.744 31.5944 190.744 30.5918ZM199.789 30.6133V30.1621C199.789 28.4577 200.033 26.8893 200.52 25.457C201.007 24.0104 201.715 22.7572 202.646 21.6973C203.577 20.6374 204.723 19.8138 206.084 19.2266C207.445 18.625 209.006 18.3242 210.768 18.3242C212.529 18.3242 214.098 18.625 215.473 19.2266C216.848 19.8138 218.001 20.6374 218.932 21.6973C219.877 22.7572 220.593 24.0104 221.08 25.457C221.567 26.8893 221.811 28.4577 221.811 30.1621V30.6133C221.811 32.3034 221.567 33.8717 221.08 35.3184C220.593 36.7507 219.877 38.0039 218.932 39.0781C218.001 40.138 216.855 40.9616 215.494 41.5488C214.133 42.1361 212.572 42.4297 210.811 42.4297C209.049 42.4297 207.48 42.1361 206.105 41.5488C204.745 40.9616 203.592 40.138 202.646 39.0781C201.715 38.0039 201.007 36.7507 200.52 35.3184C200.033 33.8717 199.789 32.3034 199.789 30.6133ZM205.977 30.1621V30.6133C205.977 31.5872 206.062 32.4967 206.234 33.3418C206.406 34.1868 206.678 34.9316 207.051 35.5762C207.438 36.2064 207.939 36.7005 208.555 37.0586C209.171 37.4167 209.923 37.5957 210.811 37.5957C211.67 37.5957 212.408 37.4167 213.023 37.0586C213.639 36.7005 214.133 36.2064 214.506 35.5762C214.878 34.9316 215.15 34.1868 215.322 33.3418C215.508 32.4967 215.602 31.5872 215.602 30.6133V30.1621C215.602 29.2168 215.508 28.3288 215.322 27.498C215.15 26.653 214.871 25.9082 214.484 25.2637C214.112 24.6048 213.618 24.0892 213.002 23.7168C212.386 23.3444 211.641 23.1582 210.768 23.1582C209.894 23.1582 209.149 23.3444 208.533 23.7168C207.932 24.0892 207.438 24.6048 207.051 25.2637C206.678 25.9082 206.406 26.653 206.234 27.498C206.062 28.3288 205.977 29.2168 205.977 30.1621ZM237 18.7539V23.1367H223.465V18.7539H237ZM226.816 13.0176H233.004V34.9961C233.004 35.6693 233.09 36.1849 233.262 36.543C233.448 36.901 233.72 37.1517 234.078 37.2949C234.436 37.4238 234.887 37.4883 235.432 37.4883C235.818 37.4883 236.162 37.474 236.463 37.4453C236.778 37.4023 237.043 37.3594 237.258 37.3164L237.279 41.8711C236.749 42.043 236.176 42.179 235.561 42.2793C234.945 42.3796 234.264 42.4297 233.52 42.4297C232.159 42.4297 230.97 42.2077 229.953 41.7637C228.951 41.3053 228.177 40.5749 227.633 39.5723C227.089 38.5697 226.816 37.252 226.816 35.6191V13.0176Z" fill="#3F8EA8"/>
  <path d="M52 0H37V55H52V0Z" fill="#3F8EA8"/>
  <path opacity="0.8" d="M33 0H19V55H33V0Z" fill="#3F8EA8"/>
  <path opacity="0.4" d="M15 0H0V55H15V0Z" fill="#3F8EA8"/>
  </svg>
  