<svg width="240" height="55" viewBox="0 0 240 55" fill="none" xmlns="http://www.w3.org/2000/svg">
<g clip-path="url(#clip0_223_690)">
<g clip-path="url(#clip1_223_690)">
<path d="M75.5391 28.2715H67.5039L67.4609 23.8457H74.207C75.3958 23.8457 76.3698 23.6953 77.1289 23.3945C77.888 23.0794 78.4538 22.6283 78.8262 22.041C79.2129 21.4395 79.4062 20.709 79.4062 19.8496C79.4062 18.8757 79.2201 18.0879 78.8477 17.4863C78.4896 16.8848 77.9238 16.4479 77.1504 16.1758C76.3913 15.9036 75.4102 15.7676 74.207 15.7676H69.7383V42H63.293V10.7188H74.207C76.026 10.7188 77.6517 10.8906 79.084 11.2344C80.5306 11.5781 81.7552 12.1009 82.7578 12.8027C83.7604 13.5046 84.5267 14.3926 85.0566 15.4668C85.5866 16.5267 85.8516 17.7871 85.8516 19.248C85.8516 20.5371 85.5579 21.7259 84.9707 22.8145C84.3978 23.903 83.4883 24.791 82.2422 25.4785C81.0104 26.166 79.3991 26.5456 77.4082 26.6172L75.5391 28.2715ZM75.2598 42H65.7422L68.2559 36.9727H75.2598C76.3913 36.9727 77.3151 36.7936 78.0312 36.4355C78.7474 36.0632 79.2773 35.5618 79.6211 34.9316C79.9648 34.3014 80.1367 33.5781 80.1367 32.7617C80.1367 31.8451 79.9792 31.0501 79.6641 30.377C79.3633 29.7038 78.8763 29.1882 78.2031 28.8301C77.5299 28.4577 76.6419 28.2715 75.5391 28.2715H69.3301L69.373 23.8457H77.1074L78.5898 25.5859C80.4948 25.5573 82.0273 25.8939 83.1875 26.5957C84.362 27.2832 85.2142 28.1784 85.7441 29.2812C86.2884 30.3841 86.5605 31.5658 86.5605 32.8262C86.5605 34.8314 86.1237 36.5215 85.25 37.8965C84.3763 39.2572 83.0944 40.2812 81.4043 40.9688C79.7285 41.6562 77.6803 42 75.2598 42ZM90.0195 30.6133V30.1621C90.0195 28.4577 90.263 26.8893 90.75 25.457C91.237 24.0104 91.946 22.7572 92.877 21.6973C93.8079 20.6374 94.9538 19.8138 96.3145 19.2266C97.6751 18.625 99.2363 18.3242 100.998 18.3242C102.76 18.3242 104.328 18.625 105.703 19.2266C107.078 19.8138 108.231 20.6374 109.162 21.6973C110.107 22.7572 110.824 24.0104 111.311 25.457C111.798 26.8893 112.041 28.4577 112.041 30.1621V30.6133C112.041 32.3034 111.798 33.8717 111.311 35.3184C110.824 36.7507 110.107 38.0039 109.162 39.0781C108.231 40.138 107.085 40.9616 105.725 41.5488C104.364 42.1361 102.803 42.4297 101.041 42.4297C99.2793 42.4297 97.7109 42.1361 96.3359 41.5488C94.9753 40.9616 93.8223 40.138 92.877 39.0781C91.946 38.0039 91.237 36.7507 90.75 35.3184C90.263 33.8717 90.0195 32.3034 90.0195 30.6133ZM96.207 30.1621V30.6133C96.207 31.5872 96.293 32.4967 96.4648 33.3418C96.6367 34.1868 96.9089 34.9316 97.2812 35.5762C97.668 36.2064 98.1693 36.7005 98.7852 37.0586C99.401 37.4167 100.153 37.5957 101.041 37.5957C101.9 37.5957 102.638 37.4167 103.254 37.0586C103.87 36.7005 104.364 36.2064 104.736 35.5762C105.109 34.9316 105.381 34.1868 105.553 33.3418C105.739 32.4967 105.832 31.5872 105.832 30.6133V30.1621C105.832 29.2168 105.739 28.3288 105.553 27.498C105.381 26.653 105.102 25.9082 104.715 25.2637C104.342 24.6048 103.848 24.0892 103.232 23.7168C102.617 23.3444 101.872 23.1582 100.998 23.1582C100.124 23.1582 99.3796 23.3444 98.7637 23.7168C98.1621 24.0892 97.668 24.6048 97.2812 25.2637C96.9089 25.9082 96.6367 26.653 96.4648 27.498C96.293 28.3288 96.207 29.2168 96.207 30.1621ZM114.855 30.6133V30.1621C114.855 28.4577 115.099 26.8893 115.586 25.457C116.073 24.0104 116.782 22.7572 117.713 21.6973C118.644 20.6374 119.79 19.8138 121.15 19.2266C122.511 18.625 124.072 18.3242 125.834 18.3242C127.596 18.3242 129.164 18.625 130.539 19.2266C131.914 19.8138 133.067 20.6374 133.998 21.6973C134.943 22.7572 135.66 24.0104 136.146 25.457C136.633 26.8893 136.877 28.4577 136.877 30.1621V30.6133C136.877 32.3034 136.633 33.8717 136.146 35.3184C135.66 36.7507 134.943 38.0039 133.998 39.0781C133.067 40.138 131.921 40.9616 130.561 41.5488C129.2 42.1361 127.639 42.4297 125.877 42.4297C124.115 42.4297 122.547 42.1361 121.172 41.5488C119.811 40.9616 118.658 40.138 117.713 39.0781C116.782 38.0039 116.073 36.7507 115.586 35.3184C115.099 33.8717 114.855 32.3034 114.855 30.6133ZM121.043 30.1621V30.6133C121.043 31.5872 121.129 32.4967 121.301 33.3418C121.473 34.1868 121.745 34.9316 122.117 35.5762C122.504 36.2064 123.005 36.7005 123.621 37.0586C124.237 37.4167 124.989 37.5957 125.877 37.5957C126.736 37.5957 127.474 37.4167 128.09 37.0586C128.706 36.7005 129.2 36.2064 129.572 35.5762C129.945 34.9316 130.217 34.1868 130.389 33.3418C130.575 32.4967 130.668 31.5872 130.668 30.6133V30.1621C130.668 29.2168 130.575 28.3288 130.389 27.498C130.217 26.653 129.938 25.9082 129.551 25.2637C129.178 24.6048 128.684 24.0892 128.068 23.7168C127.452 23.3444 126.708 23.1582 125.834 23.1582C124.96 23.1582 124.215 23.3444 123.6 23.7168C122.998 24.0892 122.504 24.6048 122.117 25.2637C121.745 25.9082 121.473 26.653 121.301 27.498C121.129 28.3288 121.043 29.2168 121.043 30.1621ZM146.867 8.97852V42H140.68V8.97852H146.867ZM161.52 18.7539L151.422 30.2695L146.008 35.748L143.752 31.2793L148.049 25.8223L154.086 18.7539H161.52ZM155.096 42L148.221 31.2578L152.496 27.5195L162.229 42H155.096ZM176.752 35.5762C176.752 35.1322 176.623 34.7311 176.365 34.373C176.107 34.015 175.628 33.6855 174.926 33.3848C174.238 33.0697 173.243 32.7832 171.939 32.5254C170.765 32.2676 169.669 31.9453 168.652 31.5586C167.65 31.1576 166.776 30.6777 166.031 30.1191C165.301 29.5605 164.728 28.9017 164.312 28.1426C163.897 27.3691 163.689 26.4883 163.689 25.5C163.689 24.526 163.897 23.6094 164.312 22.75C164.742 21.8906 165.351 21.1315 166.139 20.4727C166.941 19.7995 167.915 19.2767 169.061 18.9043C170.221 18.5176 171.524 18.3242 172.971 18.3242C174.99 18.3242 176.723 18.6465 178.17 19.291C179.631 19.9355 180.748 20.8236 181.521 21.9551C182.309 23.0723 182.703 24.347 182.703 25.7793H176.516C176.516 25.1777 176.387 24.6406 176.129 24.168C175.885 23.681 175.499 23.3014 174.969 23.0293C174.453 22.7428 173.78 22.5996 172.949 22.5996C172.262 22.5996 171.667 22.7214 171.166 22.9648C170.665 23.194 170.278 23.5091 170.006 23.9102C169.748 24.2969 169.619 24.7266 169.619 25.1992C169.619 25.5573 169.691 25.8796 169.834 26.166C169.992 26.4382 170.242 26.6888 170.586 26.918C170.93 27.1471 171.374 27.362 171.918 27.5625C172.477 27.7487 173.164 27.9206 173.98 28.0781C175.656 28.4219 177.153 28.873 178.471 29.4316C179.788 29.9759 180.834 30.7207 181.607 31.666C182.381 32.597 182.768 33.8216 182.768 35.3398C182.768 36.3711 182.538 37.3164 182.08 38.1758C181.622 39.0352 180.963 39.7871 180.104 40.4316C179.244 41.0618 178.213 41.556 177.01 41.9141C175.821 42.2578 174.482 42.4297 172.992 42.4297C170.829 42.4297 168.996 42.043 167.492 41.2695C166.003 40.4961 164.871 39.515 164.098 38.3262C163.339 37.123 162.959 35.8913 162.959 34.6309H168.824C168.853 35.4759 169.068 36.1562 169.469 36.6719C169.884 37.1875 170.407 37.5599 171.037 37.7891C171.682 38.0182 172.376 38.1328 173.121 38.1328C173.923 38.1328 174.589 38.0254 175.119 37.8105C175.649 37.5814 176.05 37.2806 176.322 36.9082C176.609 36.5215 176.752 36.0775 176.752 35.5762ZM208.441 30.3125V35.168H185.904L185.604 31.4082L198.645 10.7188H203.564L198.236 19.6348L191.748 30.3125H208.441ZM204.896 10.7188V42H198.709V10.7188H204.896ZM229.711 10.7188H236.135V31.3867C236.135 33.793 235.619 35.8197 234.588 37.4668C233.571 39.1139 232.16 40.3529 230.355 41.1836C228.565 42.0143 226.503 42.4297 224.168 42.4297C221.833 42.4297 219.757 42.0143 217.938 41.1836C216.133 40.3529 214.715 39.1139 213.684 37.4668C212.667 35.8197 212.158 33.793 212.158 31.3867V10.7188H218.604V31.3867C218.604 32.7904 218.826 33.9362 219.27 34.8242C219.714 35.7122 220.351 36.3639 221.182 36.7793C222.027 37.1947 223.022 37.4023 224.168 37.4023C225.342 37.4023 226.338 37.1947 227.154 36.7793C227.985 36.3639 228.615 35.7122 229.045 34.8242C229.489 33.9362 229.711 32.7904 229.711 31.3867V10.7188Z" fill="#3F8EA8"/>
<path d="M51.5 0H36.5V55H51.5V0Z" fill="#3F8EA8"/>
<path opacity="0.8" d="M32.5 0H18.5V55H32.5V0Z" fill="#3F8EA8"/>
<path opacity="0.4" d="M14.5 0H-0.5V55H14.5V0Z" fill="#3F8EA8"/>
</g>
</g>
<defs>
<clipPath id="clip0_223_690">
<rect width="239" height="55" fill="white" transform="translate(0.5)"/>
</clipPath>
<clipPath id="clip1_223_690">
<rect width="240" height="55" fill="white" transform="translate(-0.5)"/>
</clipPath>
</defs>
</svg>
